<svg width="224.993" height="40.323" xmlns="http://www.w3.org/2000/svg">

 <g>
  <title>background</title>
  <rect fill="none" id="canvas_background" height="402" width="582" y="-1" x="-1"/>
 </g>
 <g>
  <title>Layer 1</title>
  <g id="book-side">
   <path fill="#f9e200" d="m34.932983,5.052002l161.292,0a0,0 0 0 1 0,0l0,30a0,0 0 0 1 0,0l-161.292,0a6,6 0 0 1 -6,-6l0,-18a6,6 0 0 1 6,-6z" id="Rectangle_4"/>
   <path fill="#fff" d="m35.932983,9.052002l160.292,0a0,0 0 0 1 0,0l0,23a0,0 0 0 1 0,0l-160.292,0a4,4 0 0 1 -4,-4l0,-15a4,4 0 0 1 4,-4z" id="Rectangle_5"/>
  </g>
 </g>
</svg>